<svg xmlns="http://www.w3.org/2000/svg" width="48.94" height="48.94"><path d="M45.882 39.764H3.059v6.118h42.823zM3.059 36.706A3.059 3.059 0 000 39.764v6.118a3.059 3.059 0 003.059 3.059h42.823a3.059 3.059 0 003.059-3.059v-6.118a3.059 3.059 0 00-3.059-3.059zm42.823-15.294H3.059v6.118h42.823zM3.059 18.353A3.059 3.059 0 000 21.412v6.118a3.059 3.059 0 003.059 3.059h42.823a3.059 3.059 0 003.059-3.059v-6.118a3.059 3.059 0 00-3.059-3.059z" fill="#eb651e" fill-rule="evenodd"/><path d="M39.764 30.587H9.177v6.118h30.587zM9.177 27.526a3.059 3.059 0 00-3.059 3.061v6.118a3.059 3.059 0 003.059 3.059h30.587a3.059 3.059 0 003.059-3.059v-6.118a3.059 3.059 0 00-3.059-3.061zm30.587-15.291H9.177v6.118h30.587zM9.177 9.176a3.059 3.059 0 00-3.059 3.059v6.118a3.059 3.059 0 003.059 3.059h30.587a3.059 3.059 0 003.059-3.059v-6.118a3.059 3.059 0 00-3.059-3.059z" fill="#eb651e" fill-rule="evenodd"/><path d="M45.882 3.059H3.059v6.117h42.823zM3.059 0A3.059 3.059 0 000 3.059v6.117a3.059 3.059 0 003.059 3.059h42.823a3.059 3.059 0 003.058-3.059V3.059A3.059 3.059 0 0045.882 0z" fill="#eb651e" fill-rule="evenodd"/><path d="M16.823 3.059v6.118h-3.059V3.059zm18.353 0v6.118h-3.059V3.059zM22.939 18.353v-6.118h3.06v6.118zm-6.116 3.056v6.12h-3.059v-6.12zm18.353 0v6.12h-3.059v-6.12zm-12.237 15.3v-6.121h3.06v6.121zm-9.176 9.176v-6.121h3.059v6.118zm18.353 0v-6.121h3.059v6.118z" fill="#eb651e" fill-rule="evenodd"/></svg>