<svg xmlns="http://www.w3.org/2000/svg" width="47.995" height="48"><path d="M44.858 43.264a27.62 27.62 0 01-3.937 3.258 6.811 6.811 0 01-3.423 1.477 12.788 12.788 0 001.782-6.633q.096-3.967-1.782-5.367a8.247 8.247 0 01-2.508-2.625 10.886 10.886 0 01-1.383-3.3 28.569 28.569 0 01-.539-3.164 16.019 16.019 0 01-.117-2.437l.047-.991q-.282.375-.8.961t-1.8 2.344q-1.289 1.758-2.273 3.375a24.566 24.566 0 00-1.8 3.679 10.07 10.07 0 00-.827 3.658 13.829 13.829 0 001.054 5.765 17.2 17.2 0 003.446 4.735 13.339 13.339 0 01-4.618-.89 10.462 10.462 0 01-4.054-2.625 12.773 12.773 0 01-2.109-4.219 19.728 19.728 0 01-1.219-5.766 20.793 20.793 0 011.054-7.008 29.329 29.329 0 013.446-7.337 37.4 37.4 0 013.984-4.875 37.73 37.73 0 014.406-3.98q2.11-1.6 3.984-2.863a28.623 28.623 0 013-1.828l1.126-.609a3.568 3.568 0 00-.328.586q-.188.4-.61 1.618a15.242 15.242 0 00-.633 2.484 16.987 16.987 0 00-.164 3.14 14.681 14.681 0 00.562 3.679 17.346 17.346 0 001.8 3.984 22.2 22.2 0 003.258 4.195 19.476 19.476 0 013.726 5.133 12.072 12.072 0 011.389 5.364 9.677 9.677 0 01-.774 3.539 10.444 10.444 0 01-2.368 3.539zM23.998 8.999v-6a2.882 2.882 0 01.89-2.109 2.882 2.882 0 012.11-.891h12a2.916 2.916 0 011.828.657 75.994 75.994 0 00-14.859 11.156 3 3 0 01-1.969-2.813zm-8.529 19.64a3.037 3.037 0 01-.471-1.64v-9a3.04 3.04 0 013-3h4.781q-1.828 1.922-3.282 3.657-2.859 3.469-4.03 9.984zm2.529-16.64h-15a2.92 2.92 0 01-2.109-.867 2.872 2.872 0 01-.891-2.133v-6A2.882 2.882 0 01.89.89a2.882 2.882 0 012.108-.891h15a2.862 2.862 0 012.133.89 2.92 2.92 0 01.867 2.11v6a2.963 2.963 0 01-3 3zm-15 3h6a2.862 2.862 0 012.133.89 2.92 2.92 0 01.867 2.11v9a2.963 2.963 0 01-3 3h-6a2.92 2.92 0 01-2.109-.867 2.871 2.871 0 01-.891-2.133v-9a2.882 2.882 0 01.89-2.109 2.882 2.882 0 012.11-.891zm0 18h12a18.724 18.724 0 000 1.875 25.54 25.54 0 001.243 6.375q1.149 3.75 2.086 4.734.61.657 1.453 1.407a2.859 2.859 0 01-1.782.609h-15a2.92 2.92 0 01-2.109-.867 2.874 2.874 0 01-.891-2.133v-9a2.882 2.882 0 01.89-2.109 2.882 2.882 0 012.11-.891z" fill="#eb651e"/></svg>