<svg xmlns="http://www.w3.org/2000/svg" width="42" height="48"><path d="M24 38.765V45a2.863 2.863 0 01-.891 2.133 2.944 2.944 0 01-2.133.867A2.96 2.96 0 0118 45v-6.235a21.07 21.07 0 01-9.14-3.656A20.752 20.752 0 012.367 27.7 20.5 20.5 0 010 18a2.923 2.923 0 01.867-2.109A2.86 2.86 0 013 15h36a3.042 3.042 0 013 3 20.533 20.533 0 01-2.367 9.7 20.944 20.944 0 01-6.493 7.431A20.459 20.459 0 0124 38.765zM30 12V3a2.923 2.923 0 01.867-2.109A2.832 2.832 0 0132.976 0a2.91 2.91 0 012.133.891A2.883 2.883 0 0136 3v9zM6 12V3A2.923 2.923 0 016.867.891 2.832 2.832 0 018.976 0a2.91 2.91 0 012.133.891A2.883 2.883 0 0112 3v9z" fill="#eb651e"/></svg>