<svg xmlns="http://www.w3.org/2000/svg" width="33.526" height="41.42"><path d="M16.763 0C7.501 0 .001 8.186.001 18.283a19.121 19.121 0 001.524 7.7 27.669 27.669 0 001.707 2.959A28.991 28.991 0 016.28 34.71a29.185 29.185 0 01.9 6.648h8.67v-9.179l-4.358-5.2 4.571-4.986a1.147 1.147 0 011.681.045 1.418 1.418 0 01.041 1.833l-2.884 3.138 3.383 4.155V41.42h8.076a29.185 29.185 0 01.9-6.648 28.991 28.991 0 013.048-5.768 27.7 27.7 0 001.693-3.054 19.121 19.121 0 001.524-7.7C33.508 8.165 26.009 0 16.763 0zm.686 16.206l-4.16 4.538a1.157 1.157 0 01-1.2.4 1.279 1.279 0 01-.886-.967 1.407 1.407 0 01.364-1.308l4.16-4.538a1.157 1.157 0 011.2-.4 1.279 1.279 0 01.886.967 1.407 1.407 0 01-.364 1.308z" fill="#eb651e"/></svg>