<svg xmlns="http://www.w3.org/2000/svg" width="48" height="48"><path d="M42.667 0H5.333A5.349 5.349 0 000 5.333v37.334A5.349 5.349 0 005.333 48h37.334A5.349 5.349 0 0048 42.667V5.333A5.349 5.349 0 0042.667 0M16.8 13.867c3.467 0 5.6 1.333 7.467 2.133a13.017 13.017 0 006.4 1.867c2.667 0 5.333-1.867 6.667-3.2l2.133 3.467A12.754 12.754 0 0130.4 22.4a14.391 14.391 0 01-7.2-2.133 14.168 14.168 0 00-6.667-1.867c-2.667 0-5.333 1.867-6.667 3.2L8 18.133a12.653 12.653 0 018.8-4.267m14.133 20.267c-3.467 0-5.6-1.333-7.467-2.133a14.168 14.168 0 00-6.666-1.867c-2.667 0-5.333 1.867-6.667 3.2L8 29.6a12.653 12.653 0 018.8-4.267c3.467 0 5.6 1.333 7.467 2.133a13.255 13.255 0 006.667 1.867c2.667 0 5.333-1.867 6.667-3.2l2.132 3.467a11.05 11.05 0 01-8.8 4.533z" fill="#eb651e"/></svg>