<svg xmlns="http://www.w3.org/2000/svg" width="48" height="48"><path d="M41.998 48h-36a5.784 5.784 0 01-4.243-1.758A5.77 5.77 0 010 42V6a5.784 5.784 0 011.758-4.242A5.774 5.774 0 016 0h36a5.784 5.784 0 014.243 1.758A5.774 5.774 0 0148 6v36a6 6 0 01-6 6zM6.023 45a2.831 2.831 0 002.109-.89 2.955 2.955 0 00.867-2.133 2.861 2.861 0 00-.867-2.109A2.909 2.909 0 005.999 39a2.9 2.9 0 00-2.133.867 2.866 2.866 0 00-.867 2.109 2.922 2.922 0 00.89 2.133A2.893 2.893 0 006.022 45zM5.999 3a2.9 2.9 0 00-2.133.867 2.87 2.87 0 00-.867 2.109 2.951 2.951 0 00.867 2.133A2.855 2.855 0 005.999 9a2.868 2.868 0 002.133-.89 2.945 2.945 0 00.867-2.133 2.865 2.865 0 00-.867-2.109A2.913 2.913 0 005.999 3zm18 3a17.624 17.624 0 00-9.024 2.415 17.871 17.871 0 00-6.562 6.562 18.069 18.069 0 000 18.046 17.871 17.871 0 006.562 6.562 18.069 18.069 0 0018.046 0 17.87 17.87 0 006.564-6.562 18.069 18.069 0 000-18.046 17.87 17.87 0 00-6.562-6.562A17.624 17.624 0 0023.999 6zm18-3a2.962 2.962 0 00-3 2.976 2.951 2.951 0 00.867 2.133 3 3 0 004.265 0 2.945 2.945 0 00.867-2.133 2.865 2.865 0 00-.867-2.109A2.913 2.913 0 0041.998 3zm0 36a2.962 2.962 0 00-3 2.976 2.951 2.951 0 00.867 2.133 3 3 0 004.265 0 2.945 2.945 0 00.867-2.133 2.865 2.865 0 00-.867-2.109A2.913 2.913 0 0041.998 39zm-12-15a5.954 5.954 0 01-.7 2.765 23.446 23.446 0 014.945 1.571 11.222 11.222 0 013.258 2.039 13.479 13.479 0 01-7.5 7.125 21.957 21.957 0 00-.539-5.39 8.1 8.1 0 00-1.758-3.422A5.774 5.774 0 0123.997 30a5.954 5.954 0 01-2.765-.7 23.446 23.446 0 01-1.571 4.945 11.222 11.222 0 01-2.039 3.255 13.479 13.479 0 01-7.125-7.5 21.957 21.957 0 005.39-.539 8.1 8.1 0 003.422-1.761 5.774 5.774 0 01-1.312-3.7 5.954 5.954 0 01.7-2.765 23.446 23.446 0 01-4.945-1.571 11.222 11.222 0 01-3.258-2.039 13.479 13.479 0 017.5-7.125 21.957 21.957 0 00.539 5.39 8.1 8.1 0 001.762 3.42A5.774 5.774 0 0123.999 18a5.954 5.954 0 012.765.7 23.446 23.446 0 011.571-4.945 11.222 11.222 0 012.039-3.255 13.479 13.479 0 017.125 7.5 21.957 21.957 0 00-5.39.539 8.1 8.1 0 00-3.424 1.761 5.774 5.774 0 011.314 3.7z" fill="#eb651e"/></svg>