<svg xmlns="http://www.w3.org/2000/svg" width="48.219" height="48"><path d="M12.625 9.403L8.679 5.475l-3.09 3.09 3.923 3.923zm-6.05 12.405H0v4.384h6.575zM26.3 0h-4.382v6.466H26.3V0zm16.33 8.57l-3.09-3.095-3.923 3.923 3.09 3.09L42.63 8.57zm-7.035 30.027l3.923 3.945 3.09-3.09-3.945-3.923-3.068 3.068zm6.049-16.789v4.384h6.575v-4.384zM24.11 10.849A13.151 13.151 0 1037.26 24a13.161 13.161 0 00-13.15-13.151zM21.918 48H26.3v-6.466h-4.382zM5.589 39.43l3.09 3.09 3.921-3.945-3.09-3.09-3.921 3.945z" fill="#eb651e"/></svg>